<svg width="54" height="32" viewBox="0 0 54 32" fill="none" xmlns="http://www.w3.org/2000/svg">
<path d="M52.544 2.27995C52.9173 1.03995 52.544 0.130615 50.7787 0.130615H44.9307C43.4427 0.130615 42.7627 0.917283 42.3893 1.78128C42.3893 1.78128 39.416 9.03195 35.2027 13.7333C33.8427 15.1013 33.2213 15.5333 32.48 15.5333C32.1093 15.5333 31.5707 15.1013 31.5707 13.8613V2.27995C31.5707 0.791949 31.1413 0.130615 29.9013 0.130615H20.712C19.784 0.130615 19.224 0.818616 19.224 1.47462C19.224 2.88262 21.3307 3.20795 21.5467 7.17595V15.7839C21.5467 17.6693 21.208 18.0133 20.4613 18.0133C18.48 18.0133 13.6587 10.7359 10.7973 2.40528C10.24 0.786616 9.67734 0.133283 8.18401 0.133283H2.33868C0.666677 0.133283 0.333344 0.91995 0.333344 1.78395C0.333344 3.33595 2.31468 11.0159 9.56268 21.1733C14.3947 28.1093 21.1973 31.8693 27.3947 31.8693C31.1093 31.8693 31.568 31.0346 31.568 29.5946V24.3519C31.568 22.6826 31.9227 22.3466 33.0987 22.3466C33.9627 22.3466 35.4507 22.7839 38.92 26.1253C42.8827 30.0879 43.5387 31.8666 45.7653 31.8666H51.6107C53.28 31.8666 54.1147 31.0319 53.6347 29.3839C53.1093 27.7439 51.216 25.3573 48.704 22.5333C47.3387 20.9226 45.2987 19.1893 44.6773 18.3226C43.8107 17.2053 44.0613 16.712 44.6773 15.72C44.68 15.7226 51.8027 5.69062 52.544 2.27995V2.27995Z" fill="#432603"/>
</svg>
